<svg xmlns="http://www.w3.org/2000/svg">
<defs>
<symbol id="kids" x="0px" y="0px" viewBox="0 0 512.003 512.003">
<title>tree swing</title>


<g>
	<g>
		<path d="M183.119,63.554l14.328,4.957c2.948-8.52,10.979-14.244,19.984-14.244v-15.16    C201.969,39.107,188.18,48.932,183.119,63.554z"/>
	</g>
</g>
<g>
	<g>
		<path d="M163.538,78.776c-22.731,1.915-41.489,19.73-44.601,42.358l15.018,2.066c2.155-15.662,15.132-27.991,30.857-29.317    L163.538,78.776z"/>
	</g>
</g>
<g>
	<g>
		<path d="M66.762,172.107l15.018,2.066c0.881-6.406,6.397-11.236,12.83-11.235l0.316,0.003l0.327-15.156    C81.023,147.465,68.698,158.025,66.762,172.107z"/>
	</g>
</g>
<g>
	<g>
		<path d="M193.904,149.705c-6.531,7.788-16.04,12.256-26.086,12.256c-1.566,0-3.155-0.11-4.728-0.326    c-2.571-0.354-5.136-1.018-7.627-1.974l-5.435,14.153c3.575,1.372,7.273,2.328,10.994,2.84c2.255,0.309,4.541,0.467,6.795,0.467    c14.542,0,28.284-6.442,37.703-17.674L193.904,149.705z"/>
	</g>
</g>
<g>
	<g>
		<g>
			<path d="M252.235,149.999l-11.716,9.623c6.1,7.427,13.396,13.609,21.685,18.373l7.555-13.145     C263.064,161.003,257.169,156.006,252.235,149.999z"/>
			<path d="M326.327,168.378c-7.839,3.299-16.115,4.972-24.598,4.972c-2.923,0-5.893-0.205-8.824-0.608     c-3.653-0.502-7.277-1.322-10.773-2.437l-4.606,14.444c4.321,1.378,8.8,2.391,13.312,3.012c3.614,0.496,7.279,0.749,10.891,0.749     c10.515,0,20.769-2.072,30.479-6.158L326.327,168.378z"/>
		</g>
	</g>
</g>
<g>
	<g>
		<g>
			<path d="M392.166,257.983l-12.081,9.16c4.896,6.457,11.592,10.991,19.362,13.114l3.993-14.626     C398.924,264.398,395.024,261.753,392.166,257.983z"/>
			<path d="M434.722,219.299l-10.687,10.753c4.067,4.043,6.307,9.378,6.307,15.024c0,0.984-0.069,1.984-0.203,2.968     c-1.155,8.395-7.444,15.494-15.649,17.665l3.879,14.656c14.264-3.775,24.778-15.65,26.788-30.258     c0.229-1.669,0.345-3.362,0.345-5.031C445.502,235.363,441.673,226.208,434.722,219.299z"/>
		</g>
	</g>
</g>
<g>
	<g>
		<path d="M435.071,126.883c-7.956-10.496-19.506-17.262-32.522-19.052l-2.065,15.019c9.003,1.238,16.996,5.923,22.506,13.191    c5.509,7.269,7.863,16.231,6.624,25.237l15.018,2.066C446.423,150.326,443.027,137.379,435.071,126.883z"/>
	</g>
</g>
<g>
	<g>
		<g>
			<path d="M312.391,31.058c-3.616-0.497-7.284-0.75-10.9-0.75c-15.181,0-29.978,4.381-42.793,12.671l8.233,12.73     c12.832-8.3,28.172-11.726,43.395-9.632c15.053,2.07,28.871,9.374,38.907,20.566l11.287-10.12     C348.091,42.66,330.998,33.617,312.391,31.058z"/>
			<path d="M370.305,70.103l-13.172,7.504c2.904,5.098,5.105,10.602,6.541,16.361l14.71-3.672     C376.612,83.197,373.894,76.402,370.305,70.103z"/>
		</g>
	</g>
</g>
<g>
	<g>
		<path d="M460.652,202.789c7.447-10.435,12.259-22.518,14.018-35.314c5.98-43.472-24.523-83.704-67.996-89.683    c-0.103-0.014-0.204-0.028-0.308-0.041c-5.702-18.871-16.355-35.789-31.025-49.191c-16.398-14.979-36.737-24.503-58.816-27.54    c-24.473-3.365-49.338,1.658-70.518,14.166c-6.132-2.902-12.642-4.839-19.407-5.769c-29.828-4.1-58.649,12.425-70.38,39.699    c-15.975,2.343-31.073,9.599-42.94,20.719c-13.244,12.409-21.902,29.163-24.38,47.177c-0.032,0.243-0.065,0.486-0.097,0.732    c-26.557,2.631-48.353,23.154-52.076,50.234c-2.13,15.479,1.896,30.861,11.336,43.311s23.163,20.481,38.642,22.61    c11.657,1.604,23.119-0.353,33.166-5.142l32.404,18.709v113.944h-19.709v45.481h116.23v-45.481h-19.709v-69.595l34.364,19.84    v185.189h-86.414v15.16h227.406v-15.16h-86.414V313.735l41.483-23.95c10.524,11.731,24.701,19.299,40.491,21.471    c3.087,0.424,6.169,0.635,9.232,0.634c14.456,0,28.453-4.681,40.172-13.566c14.203-10.768,23.361-26.422,25.79-44.077    C477.766,235.544,472.496,217.142,460.652,202.789z M152.273,229.956l-18.36-10.6c3.787-3.422,7.146-7.363,9.962-11.753    l8.398,4.848V229.956z M233.633,376.566v15.16h-85.909v-15.16h4.548h76.813H233.633z M213.924,248.045v17.506l-46.492-26.842    v-17.505L213.924,248.045z M173.563,207.237c18.408-1.314,35.771-8.987,49.242-21.939c11.438,11.899,25.322,20.956,40.644,26.647    v47.188L173.563,207.237z M213.924,283.056v78.349h-46.492V256.214L213.924,283.056z M302.865,304.977v191.86h-24.257V302.896    l-49.524-28.593v-17.506l49.524,28.593v-69.031c2.671,0.573,5.369,1.064,8.098,1.439c5.374,0.739,10.776,1.069,16.159,1.01v68.664    l41.983-24.24c1.38,4.899,3.317,9.644,5.815,14.15L302.865,304.977z M342.403,247.139l-24.377,14.074v-43.637    c7.117-1.076,14.126-2.843,20.916-5.31c2.632,2.695,5.451,5.196,8.436,7.49c-2.141,5.204-3.611,10.664-4.385,16.302    C342.482,239.767,342.301,243.469,342.403,247.139z M460.176,252.176c-1.877,13.644-8.955,25.741-19.93,34.062    c-10.975,8.321-24.533,11.872-38.179,9.994c-13.644-1.877-25.741-8.955-34.062-19.93c-8.321-10.975-11.87-24.534-9.994-38.178    c0.84-6.102,2.729-11.928,5.616-17.318l3.306-6.17l-5.889-3.785c-5.336-3.431-10.128-7.621-14.243-12.453l-3.597-4.226    l-5.116,2.153c-15.51,6.527-32.566,8.759-49.317,6.454c-23.57-3.242-44.869-15.151-59.967-33.534l-5.797-7.058l-5.869,6.999    c-14.353,17.116-36.108,25.522-58.179,22.486c-4.873-0.67-9.706-1.917-14.364-3.706l-6.957-2.671l-2.789,6.91    c-7.434,18.413-26.384,29.385-46.082,26.671c-11.468-1.578-21.634-7.526-28.627-16.749c-6.993-9.224-9.976-20.619-8.399-32.087    c3.005-21.839,21.855-37.899,43.875-37.412l7.452,0.173l0.298-7.449c0.085-2.134,0.271-4.246,0.549-6.278    c4.071-29.598,28.611-52.899,58.348-55.404l4.914-0.414l1.613-4.66c8.006-23.136,31.446-37.504,55.738-34.161    c6.394,0.879,12.489,2.921,18.118,6.066l3.983,2.228l3.832-2.479c18.919-12.237,41.648-17.286,63.993-14.211    c38.393,5.281,69.26,32.991,78.636,70.593l1.339,5.37l5.522,0.36c1.798,0.117,3.278,0.26,4.654,0.45    c35.19,4.84,59.883,37.408,55.042,72.598c-1.673,12.156-6.747,23.517-14.676,32.856l-4.535,5.343l4.971,4.94    C457.021,220.087,462.401,235.989,460.176,252.176z"/>
	</g>
</g>
<g>
	<g>
		<rect x="146.713" y="496.836" width="15.16" height="15.16"/>
	</g>
</g>
<g>
	<g>
		<rect x="419.601" y="496.836" width="15.16" height="15.16"/>
	</g>
</g>


</symbol>
</defs>
</svg>

