<?xml version="1.0" standalone="no"?>
<!DOCTYPE svg PUBLIC "-//W3C//DTD SVG 1.1//EN" "http://www.w3.org/Graphics/SVG/1.1/DTD/svg11.dtd" >
<svg>
<metadata>
Created by FontForge 20090622 at Wed Mar  5 04:49:20 2014
 By ffonts
1.2, Copyright Copr. Castcraft Software, Inc. 1990-1991.
</metadata>
<defs>
<font id="OPTIBodoniCampanileFive" horiz-adv-x="431" >
  <font-face 
    font-family="OPTIBodoniCampanileFive"
    font-weight="400"
    font-stretch="normal"
    units-per-em="1000"
    panose-1="2 0 6 6 9 0 0 2 0 4"
    ascent="800"
    descent="-200"
    x-height="533"
    cap-height="752"
    bbox="-33 -350 957 970"
    underline-thickness="62"
    underline-position="-50"
    stemh="18"
    stemv="104"
    unicode-range="U+0020-U+221E"
  />
<missing-glyph horiz-adv-x="500" 
 />
    <glyph glyph-name=".notdef" horiz-adv-x="500" 
 />
    <glyph glyph-name="space" unicode=" " horiz-adv-x="275" 
 />
    <glyph glyph-name="exclam" unicode="!" horiz-adv-x="199" 
d="M102 -6c-36 0 -58 28 -58 73s22 74 58 74s58 -29 58 -74s-22 -73 -58 -73zM123 254c-2 -33 -6 -41 -21 -41c-14 0 -19 8 -22 41l-38 396c-3 22 -4 35 -4 45c0 41 25 68 64 68s64 -27 64 -69c0 -10 -1 -22 -3 -44z" />
    <glyph glyph-name="quotedbl" unicode="&#x22;" horiz-adv-x="260" 
d="M91 368h-26l-20 235c-1 23 -20 122 11 142c15 9 32 9 44 0c28 -20 10 -139 10 -146zM203 368h-26l-20 235c-1 23 -20 122 11 142c15 9 32 9 44 0c28 -20 10 -139 10 -146z" />
    <glyph glyph-name="numbersign" unicode="#" horiz-adv-x="882" 
d="M487 804l-87 -256h194l87 256h69l-88 -256h189l-20 -56h-188l-69 -201h188l-19 -56h-189l-86 -253h-68l86 253h-194l-87 -253h-69l87 253h-185l19 56h185l70 201h-185l19 56h185l88 256h68zM311 291h194l70 201h-195z" />
    <glyph glyph-name="dollar" unicode="$" horiz-adv-x="426" 
d="M195 322c-87 72 -139 147 -139 230c0 94 57 173 139 191v47h36v-44c87 -3 148 -66 148 -150c0 -51 -21 -82 -55 -82c-30 0 -51 30 -51 74c0 38 20 69 47 69c4 0 8 -2 16 -4c-17 45 -55 72 -105 72v-277c115 -91 163 -164 163 -247c0 -101 -71 -188 -163 -200v-91h-36v90
c-90 4 -157 71 -157 154c0 49 28 88 63 88c34 0 56 -31 56 -77c0 -45 -22 -75 -55 -75c-4 0 -5 0 -11 2c13 -40 50 -64 104 -68v298zM318 141c0 57 -27 100 -87 150v-265c52 10 87 57 87 115zM123 613c0 -46 22 -87 72 -133v238c-46 -15 -72 -55 -72 -105z" />
    <glyph glyph-name="percent" unicode="%" horiz-adv-x="664" 
d="M319 740c52 0 96 21 115 56l26 -7l-216 -823l-40 13l218 780c-30 -26 -59 -36 -106 -36c-21 0 -40 2 -65 8c45 -41 73 -111 73 -184c0 -113 -67 -214 -143 -214s-143 101 -143 214c0 111 65 212 139 214c47 1 89 -21 142 -21zM487 418c76 0 145 -100 145 -215
c0 -112 -69 -213 -144 -213s-142 101 -142 213s67 215 141 215zM181 350c31 0 41 24 41 96v203c0 70 -10 95 -41 95c-32 0 -41 -22 -41 -95v-203c0 -73 9 -96 41 -96zM488 7c32 0 42 24 42 95v203c0 71 -10 96 -42 96c-31 0 -40 -23 -40 -96v-203c0 -74 9 -95 40 -95z" />
    <glyph glyph-name="ampersand" unicode="&#x26;" horiz-adv-x="596" 
d="M219 -11c-105 0 -181 73 -181 176c0 63 29 116 110 201l18 18c-18 58 -28 120 -28 167c0 119 66 213 150 213c57 0 99 -46 99 -105c0 -55 -29 -111 -91 -176l-34 -36c42 -106 72 -187 131 -287c16 45 25 103 25 154c0 69 -17 91 -71 93v18h176v-18
c-55 -2 -68 -14 -71 -67c-5 -108 -14 -155 -40 -212c30 -55 68 -106 108 -106c12 0 19 2 37 11l6 -14c-29 -21 -55 -30 -90 -30c-47 0 -79 13 -121 53c-38 -38 -80 -53 -133 -53zM174 363c-31 -39 -42 -66 -42 -109c0 -99 75 -225 143 -225c25 0 44 10 61 29
c-92 101 -152 271 -162 305zM331 648c0 58 -20 96 -53 96c-34 0 -59 -44 -59 -104c0 -46 10 -98 36 -173c59 66 76 130 76 181z" />
    <glyph glyph-name="quotesingle" unicode="'" horiz-adv-x="148" 
d="M91 368h-26l-20 235c-1 23 -20 122 11 142c15 9 32 9 44 0c28 -20 10 -139 10 -146z" />
    <glyph glyph-name="parenleft" unicode="(" horiz-adv-x="257" 
d="M224 744c-61 -136 -102 -324 -102 -485c0 -160 41 -349 102 -485l-11 -7c-108 145 -175 336 -175 492s67 347 175 493z" />
    <glyph glyph-name="parenright" unicode=")" horiz-adv-x="257" 
d="M38 744l11 8c108 -146 175 -337 175 -493s-67 -347 -175 -492l-11 7c62 136 102 325 102 485c0 161 -40 349 -102 485z" />
    <glyph glyph-name="asterisk" unicode="*" horiz-adv-x="247" 
d="M195 560l-13 -12l-46 59v-92h-18v92l-46 -59l-15 12l51 64h-70v18h70l-51 64l15 12l46 -59v93h18v-93l46 59l13 -12l-49 -64h68v-18h-68z" />
    <glyph glyph-name="plus" unicode="+" horiz-adv-x="782" 
d="M356 393v317h76v-317h318v-77h-318v-317h-76v317h-318v77h318z" />
    <glyph glyph-name="comma" unicode="," horiz-adv-x="198" 
d="M45 -99c54 23 87 69 85 120c-8 -17 -19 -23 -38 -23c-34 0 -54 27 -54 69c0 45 23 74 59 74c40 0 68 -41 68 -102c0 -79 -43 -140 -113 -161z" />
    <glyph glyph-name="hyphen" unicode="-" horiz-adv-x="174" 
d="M141 282h-103v30h103v-30z" />
    <glyph glyph-name="period" unicode="." horiz-adv-x="187" 
d="M97 -6c-36 0 -59 28 -59 73s23 74 59 74c35 0 58 -29 58 -74s-23 -73 -58 -73z" />
    <glyph glyph-name="slash" unicode="/" horiz-adv-x="294" 
d="M64 -15l-26 7l198 760l26 -8z" />
    <glyph glyph-name="zero" unicode="0" horiz-adv-x="418" 
d="M212 -11c-96 0 -174 174 -174 387s78 387 174 387s173 -174 173 -387s-77 -387 -173 -387zM212 8c36 0 52 40 52 137v460c0 99 -16 139 -52 139c-37 0 -53 -40 -53 -139v-460c0 -97 16 -137 53 -137z" />
    <glyph glyph-name="one" unicode="1" horiz-adv-x="418" 
d="M59 0v18h97v637c-26 -12 -58 -22 -95 -28v21c88 16 159 57 197 112h14v-742h97v-18h-310z" />
    <glyph glyph-name="two" unicode="2" horiz-adv-x="418" 
d="M284 -6c-62 0 -120 43 -165 43c-24 0 -38 -11 -46 -37h-17c-2 108 41 195 97 282l38 58c40 62 54 121 54 227c0 119 -18 165 -68 165c-43 0 -77 -41 -85 -103c9 15 19 21 35 21c30 0 50 -30 50 -79c0 -47 -23 -82 -56 -82c-36 0 -62 41 -62 97c0 102 64 177 151 177
c92 0 157 -75 157 -182c0 -69 -24 -122 -88 -196l-49 -56c-89 -101 -137 -185 -141 -247c22 30 47 43 85 43c53 0 94 -18 134 -18c31 0 50 23 43 88h19c15 -132 -18 -201 -86 -201z" />
    <glyph glyph-name="three" unicode="3" horiz-adv-x="418" 
d="M355 201c0 -127 -68 -212 -169 -212c-83 0 -134 60 -134 155c0 68 28 114 70 114c36 0 60 -35 60 -87c0 -49 -24 -83 -56 -83c-19 0 -32 9 -46 31c-4 -58 38 -107 87 -107c47 0 68 36 68 118v132c0 87 -17 114 -72 114c-15 0 -40 -6 -54 -6c-15 0 -24 7 -24 17
c0 11 9 17 24 17c18 0 41 -4 51 -4c57 0 75 25 75 107v136c0 71 -16 95 -61 95c-48 0 -88 -42 -94 -103c10 26 23 37 42 37c30 0 51 -31 51 -77c0 -51 -20 -82 -54 -82c-39 0 -65 38 -65 95c0 91 57 155 140 155c94 0 157 -71 157 -174c0 -100 -60 -177 -157 -202
c100 -5 161 -76 161 -186z" />
    <glyph glyph-name="four" unicode="4" horiz-adv-x="418" 
d="M38 219v35l197 498h88v-498h68v-35h-68v-201h68v-18h-250v18h68v201h-171zM209 604l-137 -350h137v350z" />
    <glyph glyph-name="five" unicode="5" horiz-adv-x="418" 
d="M75 333v429c79 -12 146 -20 176 -20c33 0 50 5 59 20h13c0 -67 -48 -102 -140 -102c-35 0 -62 2 -88 8v-203c21 38 50 58 88 58c100 0 173 -107 173 -251c0 -160 -77 -283 -176 -283c-75 0 -124 62 -124 154c0 60 28 104 67 104c35 0 60 -36 60 -88
c0 -49 -24 -82 -57 -82c-18 0 -28 7 -41 27c9 -60 40 -94 83 -94c49 0 68 39 68 142v211c0 110 -13 138 -63 138c-52 0 -76 -54 -78 -168h-20z" />
    <glyph glyph-name="six" unicode="6" horiz-adv-x="418" 
d="M249 481c76 0 125 -89 125 -232c0 -152 -63 -260 -154 -260c-104 0 -168 134 -168 353c0 261 74 421 195 421c64 0 105 -56 105 -143c0 -59 -24 -98 -60 -98c-33 0 -54 30 -54 75s21 76 50 76c14 0 23 -5 35 -19c-5 53 -32 83 -74 83c-55 0 -73 -40 -73 -162v-140
c20 32 43 46 73 46zM217 8c27 0 37 20 37 78v290c0 58 -6 74 -28 74c-35 0 -50 -40 -50 -137v-209c0 -75 9 -96 41 -96z" />
    <glyph glyph-name="seven" unicode="7" horiz-adv-x="418" 
d="M54 0c16 67 56 199 100 316c47 131 112 280 154 359c-25 -15 -53 -20 -130 -21l-34 -1c-60 -1 -78 -18 -90 -86h-16l16 188c66 -5 150 -10 191 -10c54 0 83 4 119 15l10 -5c-86 -229 -161 -531 -188 -755h-132z" />
    <glyph glyph-name="eight" unicode="8" horiz-adv-x="418" 
d="M153 365c-85 104 -107 148 -107 216c0 104 73 182 168 182c90 0 160 -65 160 -149c0 -63 -41 -134 -112 -195l2 -4c96 -104 129 -165 129 -244c0 -104 -77 -182 -178 -182s-177 74 -177 171c0 69 42 142 117 201zM113 184c0 -103 44 -172 111 -172c51 0 86 41 86 98
c0 50 -26 104 -86 172l-55 63c-37 -42 -56 -97 -56 -161zM303 581c0 90 -48 159 -111 159c-44 0 -76 -34 -76 -81c0 -55 39 -125 125 -218l7 -8c38 41 55 87 55 148z" />
    <glyph glyph-name="nine" unicode="9" horiz-adv-x="418" 
d="M172 270c-75 0 -124 88 -124 223c0 155 68 270 159 270c99 0 164 -146 164 -372c0 -250 -72 -402 -193 -402c-73 0 -120 57 -120 143c0 59 28 98 69 98c33 0 56 -32 56 -81s-24 -85 -55 -85c-14 0 -23 4 -34 18c10 -43 40 -69 80 -69c55 0 73 42 73 165v143
c-18 -34 -43 -51 -75 -51zM199 303c33 0 48 42 48 136v205c0 74 -10 98 -40 98c-27 0 -38 -24 -38 -80v-283c0 -61 6 -76 30 -76z" />
    <glyph glyph-name="colon" unicode=":" horiz-adv-x="187" 
d="M97 -6c-36 0 -59 28 -59 73s23 74 59 74c35 0 58 -29 58 -74s-23 -73 -58 -73zM97 257c-36 0 -59 28 -59 73s23 74 59 74c35 0 58 -29 58 -74s-23 -73 -58 -73z" />
    <glyph glyph-name="semicolon" unicode=";" horiz-adv-x="198" 
d="M97 257c-36 0 -59 28 -59 73s23 74 59 74c35 0 58 -29 58 -74s-23 -73 -58 -73zM45 -99c54 23 87 69 85 120c-8 -17 -19 -23 -38 -23c-34 0 -54 27 -54 69c0 45 23 74 59 74c40 0 68 -41 68 -102c0 -79 -43 -140 -113 -161z" />
    <glyph glyph-name="less" unicode="&#x3c;" horiz-adv-x="166" 
d="M88 297l46 -200l-12 -5l-83 205l83 205l12 -4z" />
    <glyph glyph-name="equal" unicode="=" horiz-adv-x="951" 
d="M38 480h712v-73h-712v73zM38 191h712v-73h-712v73z" />
    <glyph glyph-name="greater" unicode="&#x3e;" horiz-adv-x="166" 
d="M84 297l-46 201l11 4l83 -205l-83 -205l-11 5z" />
    <glyph glyph-name="question" unicode="?" horiz-adv-x="350" 
d="M132 176c-32 28 -52 71 -52 114c0 48 24 107 74 181l53 79c21 32 32 66 32 99c0 55 -34 94 -83 94c-35 0 -61 -17 -68 -45c7 3 11 5 19 5c31 0 53 -30 53 -73c0 -45 -25 -76 -61 -76c-37 0 -61 32 -61 79c0 73 56 130 129 130c87 0 151 -72 151 -168
c0 -62 -24 -115 -80 -176l-39 -43c-62 -70 -79 -95 -79 -127c0 -20 9 -41 25 -63zM145 -6c-36 0 -59 28 -59 73s23 74 59 74s58 -29 58 -74s-22 -73 -58 -73z" />
    <glyph glyph-name="at" unicode="@" horiz-adv-x="990" 
d="M586 157c-50 -68 -96 -95 -158 -96c-78 0 -162 46 -162 168c0 158 117 311 246 311c76 0 117 -53 128 -106l24 89h86l-66 -246c-31 -114 -17 -145 59 -145c84 0 163 110 163 256c0 206 -168 318 -353 318c-243 0 -445 -155 -445 -444c0 -237 185 -384 402 -384
c110 0 227 30 355 109l26 -39c-120 -80 -254 -123 -378 -123c-262 0 -475 169 -475 437c0 232 158 490 514 490c246 0 405 -156 405 -348c0 -256 -144 -342 -248 -342c-73 0 -107 38 -123 95zM361 211c0 -62 40 -93 77 -93c88 0 171 145 171 269c0 57 -38 91 -80 91
c-92 0 -168 -155 -168 -267z" />
    <glyph glyph-name="A" unicode="A" horiz-adv-x="449" 
d="M132 213l-5 -32c-7 -44 -11 -84 -11 -100c0 -38 14 -57 48 -63v-18h-148v18c41 3 50 22 74 150l104 584h84l131 -734h30v-18h-194v18h47l-33 195h-127zM194 599l-57 -361h118z" />
    <glyph glyph-name="B" unicode="B" horiz-adv-x="457" 
d="M38 18h50v716h-50v18h171c136 0 200 -60 200 -185c0 -93 -45 -153 -135 -180c93 -16 150 -87 150 -187c0 -133 -69 -200 -207 -200h-179v18zM210 18c80 0 94 28 94 175c0 154 -14 181 -94 181h-8v-356h8zM208 395c75 0 86 21 86 166c0 149 -11 173 -82 173h-10v-339h6z
" />
    <glyph glyph-name="C" unicode="C" horiz-adv-x="387" 
d="M230 -11c-111 0 -192 160 -192 382c0 215 89 392 198 392c31 0 52 -13 75 -44l19 33h16v-253h-16c-7 154 -40 245 -92 245c-54 0 -79 -113 -79 -373c0 -254 24 -352 82 -352c59 0 90 85 92 247h22c1 -186 -45 -277 -125 -277z" />
    <glyph glyph-name="D" unicode="D" horiz-adv-x="462" 
d="M38 18h50v716h-50v18h135c172 0 257 -126 257 -376s-85 -376 -257 -376h-135v18zM212 18c79 0 97 66 97 358s-18 358 -97 358h-10v-716h10z" />
    <glyph glyph-name="E" unicode="E" horiz-adv-x="397" 
d="M38 0v18h50v716h-50v18h314v-230h-18c-2 174 -22 212 -121 212h-11v-339h9c56 0 68 20 68 121v14h18v-292h-18v17c0 101 -11 122 -67 122h-10v-359h15c99 0 132 58 130 237h18v-255h-327z" />
    <glyph glyph-name="F" unicode="F" horiz-adv-x="350" 
d="M38 0v18h50v716h-50v18h302v-230h-18v12c-2 156 -26 200 -109 200h-11v-339h6c45 0 61 23 59 135h19v-285h-19c0 110 -10 132 -58 132h-7v-359h61v-18h-225z" />
    <glyph glyph-name="G" unicode="G" horiz-adv-x="449" 
d="M355 0l-33 62c-29 -50 -62 -73 -103 -73c-108 0 -181 149 -181 370c0 228 90 404 207 404c33 0 56 -13 77 -46l21 35h17v-271h-17c-9 179 -40 263 -97 263c-62 0 -87 -101 -87 -367c0 -282 17 -367 69 -367c38 0 48 28 48 122v208h-41v18h181v-18h-42v-340h-19z" />
    <glyph glyph-name="H" unicode="H" horiz-adv-x="502" 
d="M268 0v18h38v377h-104v-377h37v-18h-201v18h50v716h-50v18h201v-18h-37v-321h104v321h-38v18h201v-18h-48v-716h48v-18h-201z" />
    <glyph glyph-name="I" unicode="I" horiz-adv-x="283" 
d="M38 0v18h50v716h-50v18h212v-18h-48v-716h48v-18h-212z" />
    <glyph glyph-name="J" unicode="J" horiz-adv-x="375" 
d="M293 242c0 -179 -45 -253 -155 -253c-73 0 -125 54 -125 129c0 53 27 89 66 89c33 0 56 -31 56 -78c0 -45 -23 -75 -56 -75c-8 0 -14 1 -20 4c8 -28 33 -47 60 -47c49 0 59 28 59 171v552h-60v18h224v-18h-49v-492z" />
    <glyph glyph-name="K" unicode="K" horiz-adv-x="490" 
d="M202 18h37v-18h-201v18h50v716h-50v18h201v-18h-37v-322l90 215c14 37 23 65 23 77c0 19 -10 28 -36 30v18h136v-18c-32 -3 -51 -24 -74 -75l-74 -169l186 -472h27v-18h-183v18h31l-126 345v-345z" />
    <glyph glyph-name="L" unicode="L" horiz-adv-x="379" 
d="M38 0v18h50v716h-50v18h225v-18h-61v-716h9c88 0 119 63 118 237h18v-255h-309z" />
    <glyph glyph-name="M" unicode="M" horiz-adv-x="614" 
d="M38 0v18c41 4 50 24 50 107v609h-50v18h172l102 -464l100 464h169v-18h-48v-716h48v-18h-212v18h49v619l-136 -637h-24l-140 637v-512c0 -87 9 -104 57 -107v-18h-137z" />
    <glyph glyph-name="N" unicode="N" horiz-adv-x="458" 
d="M377 627v-633h-20l-239 571v-440c0 -86 9 -104 57 -107v-18h-137v18c41 4 50 24 50 107v609h-50v18h125l184 -436v311c0 86 -10 104 -57 107v18h135v-18c-40 -4 -48 -24 -48 -107z" />
    <glyph glyph-name="O" unicode="O" 
d="M218 -11c-98 0 -180 176 -180 387s82 387 180 387s180 -176 180 -387s-82 -387 -180 -387zM277 299v156c0 276 -20 290 -59 290c-38 0 -59 -14 -59 -290v-156c0 -277 21 -291 59 -291c39 0 59 14 59 291z" />
    <glyph glyph-name="P" unicode="P" horiz-adv-x="448" 
d="M38 0v18h50v716h-50v18h164c139 0 213 -72 213 -205c0 -140 -66 -209 -201 -209h-12v-320h58v-18h-222zM211 358c67 0 85 38 85 180c0 163 -14 196 -85 196h-9v-376h9z" />
    <glyph glyph-name="Q" unicode="Q" 
d="M267 3v-73c0 -20 5 -28 19 -28c20 0 26 14 26 56h20v-11c0 -58 -29 -91 -82 -91c-61 0 -81 27 -81 111v36c-75 48 -131 198 -131 373c0 211 82 387 180 387s180 -176 180 -387c0 -175 -56 -325 -131 -373zM277 299v156c0 276 -20 290 -59 290c-38 0 -59 -14 -59 -290
v-156c0 -277 21 -291 59 -291c39 0 59 14 59 291z" />
    <glyph glyph-name="R" unicode="R" horiz-adv-x="469" 
d="M38 0v18h50v716h-50v18h171c129 0 197 -64 197 -183c0 -96 -57 -171 -140 -183c92 -12 128 -64 128 -184v-138c0 -22 4 -31 17 -31c17 0 32 38 27 86h21c2 -81 -21 -126 -82 -126c-68 0 -90 33 -90 134v138c0 84 -18 109 -77 109h-8v-356h48v-18h-212zM208 396
c66 0 82 33 82 165c0 140 -15 173 -78 173h-10v-338h6z" />
    <glyph glyph-name="S" unicode="S" horiz-adv-x="347" 
d="M38 268h18c3 -186 42 -257 119 -257c40 0 64 29 64 79c0 46 -15 82 -94 222c-92 164 -108 202 -108 274c0 101 54 177 126 177c30 0 54 -13 76 -42l18 31h18v-248h-18c-2 156 -36 240 -95 240c-35 0 -60 -30 -60 -72c0 -51 27 -112 103 -234c85 -134 109 -197 109 -274
c0 -103 -55 -175 -136 -175c-42 0 -75 17 -101 51l-21 -40h-18v268z" />
    <glyph glyph-name="T" unicode="T" horiz-adv-x="393" 
d="M75 0v18h68v716h-7c-65 0 -89 -53 -89 -200v-12h-20v230h344v-230h-20v12c0 147 -23 200 -87 200h-7v-716h66v-18h-248z" />
    <glyph glyph-name="U" unicode="U" horiz-adv-x="467" 
d="M434 734c-41 -6 -47 -18 -47 -104v-437c0 -156 -33 -204 -140 -204c-113 0 -159 60 -159 204v541h-50v18h200v-18h-36v-587c0 -88 19 -119 74 -119c64 0 81 35 81 167v435c0 87 -5 96 -48 104v18h125v-18z" />
    <glyph glyph-name="V" unicode="V" horiz-adv-x="439" 
d="M199 -6l-154 740h-29v18h189v-18h-42l93 -471l67 355c15 76 7 101 -42 116v18h148v-18c-40 -12 -51 -29 -66 -104l-131 -636h-33z" />
    <glyph glyph-name="W" unicode="W" horiz-adv-x="599" 
d="M377 -6l-82 491l-90 -491h-38l-121 740h-30v18h189v-18h-42l64 -449l79 467h52l75 -467l48 293c21 123 24 144 -31 156v18h139v-18c-39 -3 -48 -21 -70 -149l-104 -591h-38z" />
    <glyph glyph-name="X" unicode="X" horiz-adv-x="453" 
d="M138 141c-18 -44 -25 -69 -25 -83c0 -23 14 -37 41 -40v-18h-138v18c37 7 47 24 93 141l77 200l-115 375h-33v18h185v-18h-33l67 -214l42 106c15 43 21 60 21 73c0 22 -9 29 -39 35v18h130v-18c-32 -4 -45 -20 -72 -89l-69 -169l143 -458l30 -18h-187v18h37l-91 291z" />
    <glyph glyph-name="Y" unicode="Y" 
d="M99 0v18h55v319l-107 397h-31v18h184v-18h-35l88 -346l60 238c8 29 14 56 14 66c0 27 -13 39 -42 42v18h136v-18c-41 -3 -47 -15 -78 -126l-75 -277v-313h54v-18h-223z" />
    <glyph glyph-name="Z" unicode="Z" horiz-adv-x="384" 
d="M38 0l182 734h-16c-107 0 -131 -34 -136 -212h-17v230h291l-182 -734h14c109 0 155 70 159 240h18v-258h-313z" />
    <glyph glyph-name="bracketleft" unicode="[" horiz-adv-x="279" 
d="M247 752v-51h-113v-957h113v-50h-209v1058h209z" />
    <glyph glyph-name="backslash" unicode="\" horiz-adv-x="294" 
d="M262 -8l-26 -7l-198 759l26 8z" />
    <glyph glyph-name="bracketright" unicode="]" horiz-adv-x="279" 
d="M38 752h209v-1058h-209v50h114v957h-114v51z" />
    <glyph glyph-name="asciicircum" unicode="^" horiz-adv-x="228" 
d="M195 620l-13 -20l-68 68l-61 -68l-15 20l78 120z" />
    <glyph glyph-name="underscore" unicode="_" horiz-adv-x="394" 
d="M384 -154h-417v47h417v-47z" />
    <glyph glyph-name="grave" unicode="`" horiz-adv-x="158" 
d="M127 600h-27l-61 135h53z" />
    <glyph glyph-name="a" unicode="a" horiz-adv-x="404" 
d="M371 102c0 -82 -19 -110 -71 -110c-49 0 -74 32 -79 90c-16 -61 -44 -90 -83 -90c-61 0 -100 62 -100 155c0 104 52 171 133 171c15 0 24 -3 44 -9v110c0 82 -10 104 -48 104c-30 0 -57 -26 -55 -56c7 12 16 19 29 19c23 0 39 -22 39 -57c0 -42 -21 -71 -49 -71
c-31 0 -52 30 -52 76c0 64 41 107 104 107c94 0 136 -61 136 -196v-286c0 -20 4 -28 14 -28c14 0 22 11 22 82v16h16v-27zM185 301c-30 0 -39 -19 -39 -80v-147c0 -38 3 -47 18 -47c31 0 51 66 51 172v95c-12 5 -21 7 -30 7z" />
    <glyph glyph-name="b" unicode="b" horiz-adv-x="404" 
d="M177 487c14 36 36 54 65 54c74 0 129 -116 129 -268c0 -167 -55 -281 -135 -281c-45 0 -81 30 -97 78l-53 -76h-12v740h-36v18h139v-265zM228 11c29 0 35 17 35 111v290c0 90 -5 107 -31 107c-36 0 -55 -49 -55 -141v-243c0 -89 14 -124 51 -124z" />
    <glyph glyph-name="c" unicode="c" horiz-adv-x="320" 
d="M287 154c0 -102 -38 -162 -97 -162c-86 0 -152 118 -152 271c0 158 67 278 156 278c50 0 84 -45 84 -110c0 -47 -20 -80 -49 -80c-27 0 -45 25 -45 62c0 36 16 61 38 61c9 0 15 -4 20 -12c2 4 2 6 2 8c0 31 -22 54 -49 54c-30 0 -49 -19 -49 -105v-282
c0 -92 12 -120 52 -120c44 0 69 63 69 155v17h20v-35z" />
    <glyph glyph-name="d" unicode="d" horiz-adv-x="402" 
d="M332 18h37v-18h-128v80c-4 -53 -33 -88 -73 -88c-77 0 -130 114 -130 277c0 160 53 272 127 272c28 0 52 -18 64 -48v241h-36v18h139v-734zM175 517c-22 0 -28 -13 -29 -71v-323c0 -86 6 -107 31 -107c36 0 52 48 52 160v202c0 96 -17 139 -54 139z" />
    <glyph glyph-name="e" unicode="e" horiz-adv-x="332" 
d="M146 292v-153c0 -97 10 -122 49 -122c49 0 81 67 83 172h22v-9c0 -110 -43 -188 -109 -188c-92 0 -153 108 -153 268c0 162 61 281 145 281c74 0 117 -89 117 -240v-9h-154zM210 310v109c0 80 -7 105 -32 105s-32 -23 -32 -105v-109h64z" />
    <glyph glyph-name="f" unicode="f" horiz-adv-x="265" 
d="M232 515h-55v-497h55v-18h-194v18h36v497h-36v18h36v92c0 93 27 135 88 135c47 0 79 -36 79 -90c0 -41 -20 -71 -50 -71c-31 0 -51 26 -51 65c0 40 16 68 43 71c-7 5 -14 6 -23 6c-30 0 -53 -32 -53 -74c0 -38 13 -67 50 -105c14 -14 17 -18 20 -29h55v-18z" />
    <glyph glyph-name="g" unicode="g" horiz-adv-x="347" 
d="M127 145c0 -11 7 -19 27 -35l85 -65c66 -52 86 -82 86 -136c0 -78 -60 -136 -142 -136s-145 52 -145 119c0 52 29 89 83 118l-18 14c-39 30 -55 52 -55 76c0 21 7 34 47 58l48 29c-61 21 -103 92 -103 176c0 99 65 182 134 178c-15 25 -22 50 -22 76c0 52 30 90 69 90
c33 0 57 -28 57 -65c0 -35 -20 -61 -47 -61c-26 0 -44 22 -44 52c0 21 7 38 22 51c-24 -8 -36 -32 -36 -67c0 -24 8 -51 25 -79c61 -17 106 -91 106 -175c0 -100 -57 -181 -135 -180c-30 -16 -42 -27 -42 -38zM126 -95c0 -86 17 -114 64 -114c37 0 64 31 64 71
c0 38 -15 59 -74 104l-54 41v-102zM172 200c26 0 33 20 33 79v165c0 60 -7 80 -33 80c-25 0 -33 -20 -33 -80v-165c0 -59 8 -79 33 -79z" />
    <glyph glyph-name="h" unicode="h" horiz-adv-x="434" 
d="M177 457c19 57 51 84 95 84c71 0 94 -42 94 -182v-341h36v-18h-139v426c0 62 -5 77 -25 77c-39 0 -61 -69 -61 -195v-290h31v-18h-170v18h36v716h-36v18h139v-295z" />
    <glyph glyph-name="i" unicode="i" horiz-adv-x="246" 
d="M119 608c-36 0 -60 28 -60 73s24 74 60 74s58 -29 58 -74s-22 -73 -58 -73zM38 0v18h36v497h-36v18h139v-515h36v-18h-175z" />
    <glyph glyph-name="j" unicode="j" horiz-adv-x="246" 
d="M177 -74c0 -110 -23 -152 -86 -152c-48 0 -83 36 -83 87c0 42 21 73 53 73c29 0 48 -26 48 -65c0 -36 -16 -60 -44 -67c9 -6 14 -9 25 -9c30 0 50 30 50 72c0 32 -10 70 -33 109l-22 36c-8 14 -11 29 -11 62v443h-36v18h139v-607zM119 608c-36 0 -60 28 -60 73
s24 74 60 74s58 -29 58 -74s-22 -73 -58 -73z" />
    <glyph glyph-name="k" unicode="k" horiz-adv-x="430" 
d="M177 18h31v-18h-170v18h36v716h-36v18h139v-458l67 148c20 44 13 72 -21 74v17h132v-17c-42 -5 -55 -17 -78 -61l-41 -85l155 -352h29v-18h-172v18h27l-98 238v-238z" />
    <glyph glyph-name="l" unicode="l" horiz-adv-x="246" 
d="M38 0v18h36v716h-36v18h139v-734h36v-18h-175z" />
    <glyph glyph-name="m" unicode="m" horiz-adv-x="611" 
d="M438 0v429c0 63 -3 74 -20 74c-36 0 -59 -73 -59 -187v-298h30v-18h-133v428c0 61 -3 75 -20 75c-36 0 -59 -73 -59 -187v-298h31v-18h-170v18h36v497h-36v18h134v-98c17 71 49 106 97 106c51 0 81 -33 89 -95c12 60 46 95 92 95c69 0 91 -45 91 -181v-342h37v-18h-140z
" />
    <glyph glyph-name="n" unicode="n" horiz-adv-x="434" 
d="M263 0v426c0 62 -5 77 -25 77c-39 0 -61 -69 -61 -195v-290h31v-18h-170v18h36v497h-36v18h134v-100c15 71 50 108 100 108c71 0 94 -42 94 -182v-341h36v-18h-139z" />
    <glyph glyph-name="o" unicode="o" horiz-adv-x="370" 
d="M187 -8c-84 0 -149 119 -149 275s65 274 149 274c86 0 151 -119 151 -274c0 -156 -65 -275 -151 -275zM187 9c32 0 43 26 43 97v324c0 69 -11 94 -43 94c-30 0 -41 -26 -41 -94v-324c0 -71 11 -97 41 -97z" />
    <glyph glyph-name="p" unicode="p" horiz-adv-x="402" 
d="M38 -201h36v716h-36v18h127v-80c6 54 34 88 73 88c77 0 131 -112 131 -277c0 -158 -54 -272 -128 -272c-28 0 -51 18 -64 50v-243h46v-18h-185v18zM232 16c22 0 30 12 30 104v290c0 87 -7 109 -32 109c-37 0 -53 -50 -53 -161v-202c0 -95 17 -140 55 -140z" />
    <glyph glyph-name="q" unicode="q" horiz-adv-x="401" 
d="M184 -219v18h45v243c-12 -32 -36 -50 -64 -50c-74 0 -127 114 -127 272c0 165 53 277 130 277c40 0 69 -34 73 -88v80h127v-18h-36v-716h36v-18h-184zM146 89c1 -60 7 -73 29 -73c37 0 54 45 54 140v202c0 112 -16 161 -53 161c-24 0 -30 -23 -30 -109v-321z" />
    <glyph glyph-name="r" unicode="r" horiz-adv-x="330" 
d="M38 0v18h36v497h-36v18h134v-100c17 70 46 108 84 108c37 0 64 -37 64 -85c0 -44 -21 -73 -53 -73c-30 0 -54 28 -54 64c0 20 7 39 20 60c-40 -26 -56 -82 -56 -204v-285h43v-18h-182z" />
    <glyph glyph-name="s" unicode="s" horiz-adv-x="292" 
d="M236 350h-18c0 107 -29 174 -78 174c-20 0 -37 -18 -37 -41c0 -26 9 -45 45 -101c93 -145 111 -183 111 -247c0 -83 -44 -143 -105 -143c-33 0 -60 16 -82 47l-20 -39h-14v194h14c9 -118 46 -183 98 -183c30 0 51 24 51 56c0 28 -8 51 -37 97c-24 39 -38 62 -42 68
c-70 111 -78 129 -78 183c0 73 42 126 101 126c28 0 48 -9 66 -31l13 23h12v-183z" />
    <glyph glyph-name="t" unicode="t" horiz-adv-x="292" 
d="M190 533h74v-18h-74v-442c0 -31 6 -46 22 -46c29 0 41 43 37 137h20c9 -120 -14 -172 -76 -172c-77 0 -107 59 -107 206v317h-48v18c70 8 124 92 128 199h24v-199z" />
    <glyph glyph-name="u" unicode="u" horiz-adv-x="433" 
d="M177 533v-426c0 -62 4 -76 24 -76c39 0 61 69 61 196v288h-31v18h134v-515h36v-18h-133v101c-15 -71 -50 -109 -101 -109c-72 0 -93 42 -93 182v341h-36v18h139z" />
    <glyph glyph-name="v" unicode="v" horiz-adv-x="386" 
d="M177 -6l-135 521h-26v18h170v-18h-36l74 -337l58 225c22 86 12 110 -37 113v17h131v-17c-34 -4 -43 -18 -66 -107l-108 -415h-25z" />
    <glyph glyph-name="w" unicode="w" horiz-adv-x="494" 
d="M484 516c-35 -5 -43 -19 -63 -110l-89 -412h-27l-66 309l-65 -309h-27l-110 521h-21v18h155v-18h-36l57 -322l70 340h29l60 -340l44 213c17 83 18 101 -30 110v17h119v-17z" />
    <glyph glyph-name="x" unicode="x" horiz-adv-x="405" 
d="M361 18h34v-18h-178v18h36l-75 197l-38 -88c-37 -85 -31 -108 20 -110v-17h-144v17c40 3 56 21 95 106l56 124l-100 268h-33v18h175v-18h-32l54 -145l26 61c27 64 24 81 -13 85v17h130v-17c-46 -4 -61 -19 -99 -106l-33 -72z" />
    <glyph glyph-name="y" unicode="y" horiz-adv-x="388" 
d="M42 515h-26v18h171v-18h-35l81 -316l51 208c20 86 11 101 -44 109v17h138v-17c-36 -5 -45 -19 -64 -100l-127 -528c-20 -86 -41 -114 -86 -114c-42 0 -70 32 -70 78c0 39 23 69 52 69s47 -24 47 -64c0 -21 -4 -37 -16 -56c21 8 32 30 43 76l33 138z" />
    <glyph glyph-name="z" unicode="z" horiz-adv-x="319" 
d="M148 17c87 2 118 46 121 172h17v-189h-248l138 516c-73 -4 -109 -58 -111 -168h-18v185h239z" />
    <glyph glyph-name="braceleft" unicode="{" horiz-adv-x="515" 
d="M483 752v-31c-141 -24 -175 -55 -175 -199v-121c0 -129 -78 -175 -237 -201c167 -23 237 -59 237 -240v-112c0 -86 67 -167 175 -167v-31c-137 0 -255 51 -255 207v156c0 85 -37 147 -190 161v52c130 19 190 47 190 194v110c0 154 90 222 255 222z" />
    <glyph glyph-name="bar" unicode="|" horiz-adv-x="118" 
d="M85 -187h-47v939h47v-939z" />
    <glyph glyph-name="braceright" unicode="}" horiz-adv-x="515" 
d="M38 752c165 0 255 -68 255 -222v-110c0 -147 59 -175 190 -194v-52c-153 -14 -190 -76 -190 -161v-156c0 -156 -118 -207 -255 -207v31c108 0 175 81 175 167v112c0 181 70 217 237 240c-159 26 -237 72 -237 201v121c0 144 -35 175 -175 199v31z" />
    <glyph glyph-name="asciitilde" unicode="~" horiz-adv-x="246" 
d="M214 668c-20 -51 -38 -68 -58 -68c-13 0 -30 9 -51 26c-6 6 -13 14 -20 14c-8 0 -12 -8 -24 -34l-23 17c19 45 38 63 57 63c15 0 32 -8 51 -24c8 -8 12 -13 20 -13c7 0 14 9 26 32z" />
    <glyph glyph-name="Adieresis" unicode="&#xc4;" horiz-adv-x="449" 
d="M132 213l-5 -32c-7 -44 -11 -84 -11 -100c0 -38 14 -57 48 -63v-18h-148v18c41 3 50 22 74 150l104 584h84l131 -734h30v-18h-194v18h47l-33 195h-127zM318 865c0 -19 -18 -34 -41 -34c-22 0 -40 15 -40 34s18 34 40 34c23 0 41 -15 41 -34zM221 865
c0 -19 -18 -34 -40 -34c-23 0 -41 15 -41 34s18 34 41 34c22 0 40 -15 40 -34zM194 599l-57 -361h118z" />
    <glyph glyph-name="Aring" unicode="&#xc5;" horiz-adv-x="449" 
d="M132 213l-5 -32c-7 -44 -11 -84 -11 -100c0 -38 14 -57 48 -63v-18h-148v18c41 3 50 22 74 150l104 584h84l131 -734h30v-18h-194v18h47l-33 195h-127zM241 831c-34 0 -63 28 -63 62c0 35 29 63 62 63c36 0 63 -28 63 -63c0 -34 -28 -62 -62 -62zM194 599l-57 -361h118z
M240 930c-20 0 -36 -15 -36 -37c0 -20 16 -37 37 -37s36 17 36 37c0 22 -15 37 -37 37z" />
    <glyph glyph-name="Ccedilla" unicode="&#xc7;" horiz-adv-x="387" 
d="M217 -10c-105 12 -179 168 -179 381c0 215 89 392 198 392c31 0 52 -13 75 -44l19 33h16v-253h-16c-7 154 -40 245 -92 245c-54 0 -79 -113 -79 -373c0 -254 24 -352 82 -352c59 0 90 85 92 247h22c1 -183 -44 -274 -120 -277l-4 -13c35 0 53 -20 53 -53
c0 -39 -25 -64 -58 -64c-13 0 -17 1 -30 7v17c9 -4 14 -5 19 -5c21 0 34 12 34 31s-13 33 -34 33c-2 0 -5 0 -11 -1z" />
    <glyph glyph-name="Eacute" unicode="&#xc9;" horiz-adv-x="397" 
d="M278 965l-60 -134h-27l35 134h52zM365 0h-327v18h50v716h-50v18h314v-230h-18c-2 174 -22 212 -121 212h-11v-339h9c56 0 68 20 68 121v14h18v-292h-18v17c0 101 -11 122 -67 122h-10v-359h15c99 0 132 58 130 237h18v-255z" />
    <glyph glyph-name="Ntilde" unicode="&#xd1;" horiz-adv-x="458" 
d="M377 627v-633h-20l-239 571v-440c0 -86 9 -104 57 -107v-18h-137v18c41 4 50 24 50 107v609h-50v18h125l184 -436v311c0 86 -10 104 -57 107v18h135v-18c-40 -4 -48 -24 -48 -107zM324 898c-20 -51 -38 -67 -58 -67c-13 0 -30 9 -51 25c-6 6 -13 14 -20 14
c-8 0 -12 -8 -24 -34l-23 17c19 45 38 63 57 63c15 0 32 -8 51 -24c8 -8 12 -13 20 -13c7 0 14 9 26 32z" />
    <glyph glyph-name="Odieresis" unicode="&#xd6;" 
d="M218 -11c-98 0 -180 176 -180 387s82 387 180 387s180 -176 180 -387s-82 -387 -180 -387zM309 865c0 -19 -18 -34 -41 -34c-22 0 -40 15 -40 34s18 34 40 34c23 0 41 -15 41 -34zM212 865c0 -19 -18 -34 -40 -34c-23 0 -41 15 -41 34s18 34 41 34c22 0 40 -15 40 -34z
M277 299v156c0 276 -20 290 -59 290c-38 0 -59 -14 -59 -290v-156c0 -277 21 -291 59 -291c39 0 59 14 59 291z" />
    <glyph glyph-name="Udieresis" unicode="&#xdc;" horiz-adv-x="467" 
d="M434 734c-41 -6 -47 -18 -47 -104v-437c0 -156 -33 -204 -140 -204c-113 0 -159 60 -159 204v541h-50v18h200v-18h-36v-587c0 -88 19 -119 74 -119c64 0 81 35 81 167v435c0 87 -5 96 -48 104v18h125v-18zM350 865c0 -19 -18 -34 -40 -34c-23 0 -41 15 -41 34
s18 34 41 34c22 0 40 -15 40 -34zM254 865c0 -19 -18 -34 -41 -34c-22 0 -40 15 -40 34s18 34 40 34c23 0 41 -15 41 -34z" />
    <glyph glyph-name="aacute" unicode="&#xe1;" horiz-adv-x="404" 
d="M262 735l-61 -135h-27l35 135h53zM371 102c0 -82 -19 -110 -71 -110c-49 0 -74 32 -79 90c-16 -61 -44 -90 -83 -90c-61 0 -100 62 -100 155c0 104 52 171 133 171c15 0 24 -3 44 -9v110c0 82 -10 104 -48 104c-30 0 -57 -26 -55 -56c7 12 16 19 29 19
c23 0 39 -22 39 -57c0 -42 -21 -71 -49 -71c-31 0 -52 30 -52 76c0 64 41 107 104 107c94 0 136 -61 136 -196v-286c0 -20 4 -28 14 -28c14 0 22 11 22 82v16h16v-27zM215 199v95c-12 5 -21 7 -30 7c-30 0 -39 -19 -39 -80v-147c0 -38 3 -47 18 -47c31 0 51 66 51 172z" />
    <glyph glyph-name="agrave" unicode="&#xe0;" horiz-adv-x="404" 
d="M222 600h-27l-60 135h52zM371 102c0 -82 -19 -110 -71 -110c-49 0 -74 32 -79 90c-16 -61 -44 -90 -83 -90c-61 0 -100 62 -100 155c0 104 52 171 133 171c15 0 24 -3 44 -9v110c0 82 -10 104 -48 104c-30 0 -57 -26 -55 -56c7 12 16 19 29 19c23 0 39 -22 39 -57
c0 -42 -21 -71 -49 -71c-31 0 -52 30 -52 76c0 64 41 107 104 107c94 0 136 -61 136 -196v-286c0 -20 4 -28 14 -28c14 0 22 11 22 82v16h16v-27zM215 199v95c-12 5 -21 7 -30 7c-30 0 -39 -19 -39 -80v-147c0 -38 3 -47 18 -47c31 0 51 66 51 172z" />
    <glyph glyph-name="acircumflex" unicode="&#xe2;" horiz-adv-x="404" 
d="M273 620l-14 -20l-67 68l-62 -68l-14 20l77 120zM371 102c0 -82 -19 -110 -71 -110c-49 0 -74 32 -79 90c-16 -61 -44 -90 -83 -90c-61 0 -100 62 -100 155c0 104 52 171 133 171c15 0 24 -3 44 -9v110c0 82 -10 104 -48 104c-30 0 -57 -26 -55 -56c7 12 16 19 29 19
c23 0 39 -22 39 -57c0 -42 -21 -71 -49 -71c-31 0 -52 30 -52 76c0 64 41 107 104 107c94 0 136 -61 136 -196v-286c0 -20 4 -28 14 -28c14 0 22 11 22 82v16h16v-27zM215 199v95c-12 5 -21 7 -30 7c-30 0 -39 -19 -39 -80v-147c0 -38 3 -47 18 -47c31 0 51 66 51 172z" />
    <glyph glyph-name="adieresis" unicode="&#xe4;" horiz-adv-x="404" 
d="M270 635c0 -19 -17 -35 -40 -35c-22 0 -40 16 -40 35s18 34 40 34c23 0 40 -15 40 -34zM174 635c0 -19 -18 -35 -40 -35c-23 0 -41 16 -41 35s18 34 41 34c22 0 40 -15 40 -34zM371 102c0 -82 -19 -110 -71 -110c-49 0 -74 32 -79 90c-16 -61 -44 -90 -83 -90
c-61 0 -100 62 -100 155c0 104 52 171 133 171c15 0 24 -3 44 -9v110c0 82 -10 104 -48 104c-30 0 -57 -26 -55 -56c7 12 16 19 29 19c23 0 39 -22 39 -57c0 -42 -21 -71 -49 -71c-31 0 -52 30 -52 76c0 64 41 107 104 107c94 0 136 -61 136 -196v-286c0 -20 4 -28 14 -28
c14 0 22 11 22 82v16h16v-27zM215 199v95c-12 5 -21 7 -30 7c-30 0 -39 -19 -39 -80v-147c0 -38 3 -47 18 -47c31 0 51 66 51 172z" />
    <glyph glyph-name="atilde" unicode="&#xe3;" horiz-adv-x="404" 
d="M281 668c-21 -51 -39 -68 -59 -68c-13 0 -30 9 -50 26c-7 6 -14 14 -20 14c-8 0 -13 -8 -25 -34l-23 17c19 45 39 63 58 63c14 0 31 -8 50 -24c8 -8 12 -13 20 -13c7 0 14 9 26 32zM371 102c0 -82 -19 -110 -71 -110c-49 0 -74 32 -79 90c-16 -61 -44 -90 -83 -90
c-61 0 -100 62 -100 155c0 104 52 171 133 171c15 0 24 -3 44 -9v110c0 82 -10 104 -48 104c-30 0 -57 -26 -55 -56c7 12 16 19 29 19c23 0 39 -22 39 -57c0 -42 -21 -71 -49 -71c-31 0 -52 30 -52 76c0 64 41 107 104 107c94 0 136 -61 136 -196v-286c0 -20 4 -28 14 -28
c14 0 22 11 22 82v16h16v-27zM215 199v95c-12 5 -21 7 -30 7c-30 0 -39 -19 -39 -80v-147c0 -38 3 -47 18 -47c31 0 51 66 51 172z" />
    <glyph glyph-name="aring" unicode="&#xe5;" horiz-adv-x="404" 
d="M371 102c0 -82 -19 -110 -71 -110c-49 0 -74 32 -79 90c-16 -61 -44 -90 -83 -90c-61 0 -100 62 -100 155c0 104 52 171 133 171c15 0 24 -3 44 -9v110c0 82 -10 104 -48 104c-30 0 -57 -26 -55 -56c7 12 16 19 29 19c23 0 39 -22 39 -57c0 -42 -21 -71 -49 -71
c-31 0 -52 30 -52 76c0 64 41 107 104 107c94 0 136 -61 136 -196v-286c0 -20 4 -28 14 -28c14 0 22 11 22 82v16h16v-27zM191 600c-35 0 -63 29 -63 63c0 35 28 63 62 63c36 0 63 -28 63 -63c0 -34 -29 -63 -62 -63zM185 301c-30 0 -39 -19 -39 -80v-147
c0 -38 3 -47 18 -47c31 0 51 66 51 172v95c-12 5 -21 7 -30 7zM190 700c-21 0 -36 -15 -36 -37c0 -20 15 -37 37 -37c20 0 36 17 36 37c0 22 -16 37 -37 37z" />
    <glyph glyph-name="ccedilla" unicode="&#xe7;" horiz-adv-x="320" 
d="M173 -7c-76 15 -135 127 -135 270c0 158 67 278 156 278c50 0 84 -45 84 -110c0 -47 -20 -80 -49 -80c-27 0 -45 25 -45 62c0 36 16 61 38 61c9 0 15 -4 20 -12c2 4 2 6 2 8c0 31 -22 54 -49 54c-30 0 -49 -19 -49 -105v-282c0 -92 12 -120 52 -120c44 0 69 63 69 155v17
h20v-35c0 -101 -38 -161 -96 -162l-4 -14c35 0 53 -21 53 -54c0 -38 -25 -64 -58 -64c-13 0 -17 1 -29 8v16c9 -4 13 -5 19 -5c20 0 33 12 33 31s-13 33 -33 33c-3 0 -6 0 -12 -1z" />
    <glyph glyph-name="eacute" unicode="&#xe9;" horiz-adv-x="332" 
d="M146 292v-153c0 -97 10 -122 49 -122c49 0 81 67 83 172h22v-9c0 -110 -43 -188 -109 -188c-92 0 -153 108 -153 268c0 162 61 281 145 281c74 0 117 -89 117 -240v-9h-154zM257 735l-61 -135h-27l35 135h53zM210 310v109c0 80 -7 105 -32 105s-32 -23 -32 -105v-109h64z
" />
    <glyph glyph-name="egrave" unicode="&#xe8;" horiz-adv-x="332" 
d="M146 292v-153c0 -97 10 -122 49 -122c49 0 81 67 83 172h22v-9c0 -110 -43 -188 -109 -188c-92 0 -153 108 -153 268c0 162 61 281 145 281c74 0 117 -89 117 -240v-9h-154zM195 600h-27l-60 135h52zM210 310v109c0 80 -7 105 -32 105s-32 -23 -32 -105v-109h64z" />
    <glyph glyph-name="ecircumflex" unicode="&#xea;" horiz-adv-x="332" 
d="M146 292v-153c0 -97 10 -122 49 -122c49 0 81 67 83 172h22v-9c0 -110 -43 -188 -109 -188c-92 0 -153 108 -153 268c0 162 61 281 145 281c74 0 117 -89 117 -240v-9h-154zM269 620l-13 -20l-67 68l-62 -68l-15 20l78 120zM210 310v109c0 80 -7 105 -32 105
s-32 -23 -32 -105v-109h64z" />
    <glyph glyph-name="edieresis" unicode="&#xeb;" horiz-adv-x="332" 
d="M146 292v-153c0 -97 10 -122 49 -122c49 0 81 67 83 172h22v-9c0 -110 -43 -188 -109 -188c-92 0 -153 108 -153 268c0 162 61 281 145 281c74 0 117 -89 117 -240v-9h-154zM268 635c0 -19 -18 -35 -40 -35c-23 0 -41 16 -41 35s18 34 41 34c22 0 40 -15 40 -34zM172 635
c0 -19 -18 -35 -41 -35c-22 0 -40 16 -40 35s18 34 40 34c23 0 41 -15 41 -34zM210 310v109c0 80 -7 105 -32 105s-32 -23 -32 -105v-109h64z" />
    <glyph glyph-name="iacute" unicode="&#xed;" horiz-adv-x="246" 
d="M38 0v18h36v497h-36v18h139v-515h36v-18h-175zM184 735l-61 -135h-26l34 135h53z" />
    <glyph glyph-name="igrave" unicode="&#xec;" horiz-adv-x="246" 
d="M38 0v18h36v497h-36v18h139v-515h36v-18h-175zM136 600h-27l-61 135h53z" />
    <glyph glyph-name="icircumflex" unicode="&#xee;" horiz-adv-x="246" 
d="M38 0v18h36v497h-36v18h139v-515h36v-18h-175zM195 620l-13 -20l-68 68l-61 -68l-15 20l78 120z" />
    <glyph glyph-name="idieresis" unicode="&#xef;" horiz-adv-x="246" 
d="M38 0v18h36v497h-36v18h139v-515h36v-18h-175zM210 635c0 -19 -18 -35 -41 -35c-22 0 -40 16 -40 35s18 34 40 34c23 0 41 -15 41 -34zM113 635c0 -19 -18 -35 -40 -35s-40 16 -40 35s18 34 40 34s40 -15 40 -34z" />
    <glyph glyph-name="ntilde" unicode="&#xf1;" horiz-adv-x="434" 
d="M263 0v426c0 62 -5 77 -25 77c-39 0 -61 -69 -61 -195v-290h31v-18h-170v18h36v497h-36v18h134v-100c15 71 50 108 100 108c71 0 94 -42 94 -182v-341h36v-18h-139zM316 668c-20 -51 -38 -68 -58 -68c-13 0 -30 9 -50 26c-7 6 -14 14 -21 14s-12 -8 -24 -34l-23 17
c19 45 38 63 58 63c14 0 31 -8 50 -24c8 -8 12 -13 20 -13c7 0 14 9 26 32z" />
    <glyph glyph-name="oacute" unicode="&#xf3;" horiz-adv-x="370" 
d="M187 -8c-84 0 -149 119 -149 275s65 274 149 274c86 0 151 -119 151 -274c0 -156 -65 -275 -151 -275zM266 735l-61 -135h-27l35 135h53zM187 9c32 0 43 26 43 97v324c0 69 -11 94 -43 94c-30 0 -41 -26 -41 -94v-324c0 -71 11 -97 41 -97z" />
    <glyph glyph-name="ograve" unicode="&#xf2;" horiz-adv-x="370" 
d="M187 -8c-84 0 -149 119 -149 275s65 274 149 274c86 0 151 -119 151 -274c0 -156 -65 -275 -151 -275zM203 600h-27l-60 135h52zM187 9c32 0 43 26 43 97v324c0 69 -11 94 -43 94c-30 0 -41 -26 -41 -94v-324c0 -71 11 -97 41 -97z" />
    <glyph glyph-name="ocircumflex" unicode="&#xf4;" horiz-adv-x="370" 
d="M187 -8c-84 0 -149 119 -149 275s65 274 149 274c86 0 151 -119 151 -274c0 -156 -65 -275 -151 -275zM266 620l-13 -20l-68 68l-62 -68l-14 20l77 120zM187 9c32 0 43 26 43 97v324c0 69 -11 94 -43 94c-30 0 -41 -26 -41 -94v-324c0 -71 11 -97 41 -97z" />
    <glyph glyph-name="odieresis" unicode="&#xf6;" horiz-adv-x="370" 
d="M187 -8c-84 0 -149 119 -149 275s65 274 149 274c86 0 151 -119 151 -274c0 -156 -65 -275 -151 -275zM274 635c0 -19 -18 -35 -41 -35c-22 0 -40 16 -40 35s18 34 40 34c23 0 41 -15 41 -34zM177 635c0 -19 -18 -35 -40 -35c-23 0 -40 16 -40 35s17 34 40 34
c22 0 40 -15 40 -34zM187 9c32 0 43 26 43 97v324c0 69 -11 94 -43 94c-30 0 -41 -26 -41 -94v-324c0 -71 11 -97 41 -97z" />
    <glyph glyph-name="otilde" unicode="&#xf5;" horiz-adv-x="370" 
d="M187 -8c-84 0 -149 119 -149 275s65 274 149 274c86 0 151 -119 151 -274c0 -156 -65 -275 -151 -275zM278 668c-20 -51 -38 -68 -58 -68c-13 0 -30 9 -51 26c-6 6 -13 14 -20 14c-8 0 -12 -8 -24 -34l-23 17c19 45 38 63 57 63c15 0 32 -8 51 -24c8 -8 12 -13 20 -13
c7 0 14 9 26 32zM187 9c32 0 43 26 43 97v324c0 69 -11 94 -43 94c-30 0 -41 -26 -41 -94v-324c0 -71 11 -97 41 -97z" />
    <glyph glyph-name="uacute" unicode="&#xfa;" horiz-adv-x="433" 
d="M177 533v-426c0 -62 4 -76 24 -76c39 0 61 69 61 196v288h-31v18h134v-515h36v-18h-133v101c-15 -71 -50 -109 -101 -109c-72 0 -93 42 -93 182v341h-36v18h139zM277 735l-60 -135h-27l34 135h53z" />
    <glyph glyph-name="ugrave" unicode="&#xf9;" horiz-adv-x="433" 
d="M226 600h-27l-61 135h53zM401 0h-133v101c-15 -71 -50 -109 -101 -109c-72 0 -93 42 -93 182v341h-36v18h139v-426c0 -62 4 -76 24 -76c39 0 61 69 61 196v288h-31v18h134v-515h36v-18z" />
    <glyph glyph-name="ucircumflex" unicode="&#xfb;" horiz-adv-x="433" 
d="M177 533v-426c0 -62 4 -76 24 -76c39 0 61 69 61 196v288h-31v18h134v-515h36v-18h-133v101c-15 -71 -50 -109 -101 -109c-72 0 -93 42 -93 182v341h-36v18h139zM288 620l-13 -20l-67 68l-62 -68l-15 20l78 120z" />
    <glyph glyph-name="udieresis" unicode="&#xfc;" horiz-adv-x="433" 
d="M177 533v-426c0 -62 4 -76 24 -76c39 0 61 69 61 196v288h-31v18h134v-515h36v-18h-133v101c-15 -71 -50 -109 -101 -109c-72 0 -93 42 -93 182v341h-36v18h139zM300 635c0 -19 -18 -35 -41 -35c-22 0 -40 16 -40 35s18 34 40 34c23 0 41 -15 41 -34zM203 635
c0 -19 -18 -35 -40 -35c-23 0 -41 16 -41 35s18 34 41 34c22 0 40 -15 40 -34z" />
    <glyph glyph-name="degree" unicode="&#xb0;" horiz-adv-x="184" 
d="M95 637c-31 0 -57 26 -57 58c0 31 26 57 56 57c33 0 58 -26 58 -57c0 -32 -26 -58 -57 -58zM94 728c-18 0 -32 -14 -32 -33c0 -18 14 -34 33 -34c18 0 33 16 33 34c0 19 -15 33 -34 33z" />
    <glyph glyph-name="cent" unicode="&#xa2;" horiz-adv-x="320" 
d="M203 666c45 -6 75 -50 75 -110c0 -48 -20 -80 -49 -80c-27 0 -45 25 -45 62c0 36 16 60 38 60c9 0 15 -3 20 -11c2 3 2 6 2 8c0 30 -22 54 -49 54c-30 0 -49 -19 -49 -106v-281c0 -93 12 -121 52 -121c44 0 69 63 69 155v17h20v-35c0 -94 -32 -152 -84 -160v-84h-19v83
c-83 5 -146 121 -146 270c0 153 63 270 146 277v78h19v-76z" />
    <glyph glyph-name="sterling" unicode="&#xa3;" horiz-adv-x="440" 
d="M59 401h81c-40 83 -49 125 -49 176c0 109 73 186 174 186c77 0 129 -60 129 -151c0 -59 -23 -96 -58 -96c-32 0 -53 31 -53 72c0 43 19 71 49 71c17 0 26 -6 35 -20c-1 55 -37 98 -82 98c-49 0 -83 -49 -83 -120c0 -64 19 -134 40 -216h116v-24h-109
c17 -68 20 -96 20 -133c0 -43 -9 -94 -24 -128c36 -15 57 -21 80 -21c46 0 67 31 64 94h17c7 -140 -12 -197 -77 -197c-37 0 -71 21 -112 67c-25 -44 -59 -67 -99 -67c-46 0 -80 33 -80 79c0 48 36 81 90 81c24 0 44 -5 77 -20c4 14 5 26 5 43c0 53 -17 111 -60 202h-91v24z
M113 120c-30 0 -52 -21 -52 -50c0 -32 24 -57 55 -57c32 0 62 27 76 70c-30 24 -51 37 -79 37z" />
    <glyph glyph-name="bullet" unicode="&#x2022;" horiz-adv-x="187" 
d="M97 256c-36 0 -59 29 -59 74s23 74 59 74c35 0 58 -29 58 -74s-23 -74 -58 -74z" />
    <glyph glyph-name="germandbls" unicode="&#xdf;" horiz-adv-x="400" 
d="M38 0v18h36v497h-36v18h36v15c0 136 52 212 144 212c69 0 118 -51 118 -121c0 -62 -37 -108 -90 -112c85 -14 121 -90 121 -255c0 -191 -46 -272 -155 -272h-13v18h6c48 0 54 13 54 102v286c0 100 -4 108 -60 110v17c46 1 54 14 54 79v58c0 57 -8 74 -38 74
c-29 0 -38 -17 -38 -74v-670h-139z" />
    <glyph glyph-name="registered" unicode="&#xae;" horiz-adv-x="460" 
d="M235 752c107 0 193 -90 193 -196c0 -108 -89 -193 -196 -193s-194 88 -194 196c0 107 91 193 197 193zM61 559c0 -95 76 -175 171 -175c96 0 174 76 174 172c0 95 -76 175 -171 175s-174 -77 -174 -172zM200 551v-64c0 -26 3 -29 37 -29v-14h-114v14c35 0 39 3 39 29v140
c0 27 -4 30 -39 30v13h85c27 0 116 -1 120 -56c0 -38 -51 -53 -77 -57c77 -25 45 -99 74 -99c12 0 20 19 20 40h12c0 -23 -9 -57 -47 -57c-78 0 -11 110 -83 110h-27zM283 617c0 23 -20 41 -54 41c-27 0 -29 -8 -29 -31v-60h22c42 0 61 13 61 50z" />
    <glyph glyph-name="copyright" unicode="&#xa9;" horiz-adv-x="459" 
d="M235 752c106 0 191 -90 191 -196c0 -108 -88 -193 -195 -193c-108 0 -193 88 -193 196c0 107 90 193 197 193zM59 559c0 -95 77 -175 172 -175c96 0 175 76 175 172c0 95 -77 175 -171 175c-95 0 -176 -77 -176 -172zM311 679h11v-94h-10c-9 41 -33 83 -79 83
c-43 0 -68 -48 -68 -110c0 -54 25 -103 77 -103c32 0 58 26 76 52l10 -5c-28 -44 -59 -64 -101 -64c-61 0 -109 56 -109 122c0 69 54 121 111 121c39 0 58 -21 68 -21c9 0 14 9 14 19z" />
    <glyph glyph-name="trademark" unicode="&#x2122;" horiz-adv-x="554" 
d="M63 376v9h34v358h-4c-32 0 -45 -25 -45 -100v-4h-10v113h173v-113h-10v4c0 75 -12 100 -44 100h-3v-358h32v-9h-123zM250 376v9c20 2 25 13 25 55v303h-25v9h87l50 -230l51 230h84v-9h-24v-358h24v-9h-106v9h24v310l-67 -319h-13l-69 319v-255c0 -45 4 -52 28 -55v-9h-69
z" />
    <glyph glyph-name="acute" unicode="&#xb4;" horiz-adv-x="157" 
d="M126 735l-61 -135h-27l35 135h53z" />
    <glyph glyph-name="dieresis" unicode="&#xa8;" horiz-adv-x="248" 
d="M215 635c0 -19 -17 -35 -40 -35c-22 0 -40 16 -40 35s18 34 40 34c23 0 40 -15 40 -34zM119 635c0 -19 -18 -35 -40 -35c-23 0 -41 16 -41 35s18 34 41 34c22 0 40 -15 40 -34z" />
    <glyph glyph-name="AE" unicode="&#xc6;" horiz-adv-x="585" 
d="M245 0v18h48v195h-125l-18 -68c-9 -34 -13 -54 -13 -70c0 -32 18 -54 48 -57v-18h-147v18c34 8 47 28 73 120l168 596h-34v18h295v-230h-18c-2 174 -23 212 -121 212h-12v-339h9c57 0 69 20 69 121v14h18v-292h-18v17c0 101 -11 122 -67 122h-11v-359h15
c100 0 132 58 130 237h18v-255h-307zM293 238v446l-118 -446h118z" />
    <glyph glyph-name="Oslash" unicode="&#xd8;" 
d="M152 17c-66 57 -114 198 -114 359c0 211 82 387 180 387c18 0 36 -5 51 -17l13 76l18 -4l-15 -84c66 -58 113 -198 113 -358c0 -211 -82 -387 -180 -387c-17 0 -34 5 -50 15l-12 -74l-18 4zM166 104l97 599c-10 39 -25 42 -45 42c-38 0 -59 -14 -59 -290v-156
c0 -89 3 -152 7 -195zM272 643l-97 -596c9 -36 24 -39 43 -39c39 0 59 14 59 291v156c0 85 -2 145 -5 188z" />
    <glyph glyph-name="infinity" unicode="&#x221e;" horiz-adv-x="388" 
d="M42 515h-26v18h171v-18h-35l81 -316l51 208c20 86 11 101 -44 109v17h138v-17c-36 -5 -45 -19 -64 -100l-127 -528c-20 -86 -41 -114 -86 -114c-42 0 -70 32 -70 78c0 39 23 69 52 69s47 -24 47 -64c0 -21 -4 -37 -16 -56c21 8 32 30 43 76l33 138zM290 735l-61 -135h-27
l35 135h53z" />
    <glyph glyph-name="yen" unicode="&#xa5;" horiz-adv-x="476" 
d="M295 346l-4 -15v-313h54v-18h-224v18h55v319l-2 9h-100v18h94l-8 30h-86v18h82l-86 322h-32v18h184v-18h-35l88 -346l61 238c7 29 13 56 13 66c0 27 -12 39 -41 42v18h135v-18c-40 -3 -47 -15 -77 -126l-54 -196h83v-18h-87l-8 -30h95v-18h-100z" />
    <glyph glyph-name="ae" unicode="&#xe6;" horiz-adv-x="506" 
d="M242 90c-12 -37 -52 -98 -104 -98c-61 0 -100 62 -100 155c0 104 52 171 133 171c15 0 24 -3 44 -9v110c0 82 -10 104 -48 104c-30 0 -57 -26 -55 -56c7 12 16 19 29 19c23 0 39 -22 39 -57c0 -42 -21 -71 -49 -71c-31 0 -52 30 -52 76c0 64 41 107 104 107
c43 0 75 -12 96 -39c23 24 49 39 78 39c74 0 117 -89 117 -240v-9h-154v-153c0 -97 10 -122 49 -122c49 0 81 67 83 172h22v-9c0 -110 -43 -188 -109 -188c-53 0 -96 35 -123 98zM185 301c-30 0 -39 -19 -39 -80v-147c0 -38 3 -47 18 -47c31 0 51 66 51 172v95
c-12 5 -21 7 -30 7zM384 310v109c0 80 -7 105 -32 105s-32 -23 -32 -105v-109h64z" />
    <glyph glyph-name="oslash" unicode="&#xf8;" horiz-adv-x="370" 
d="M240 524c57 -38 98 -137 98 -257c0 -156 -65 -275 -151 -275c-12 0 -23 2 -34 7c-5 -26 -10 -62 -10 -62l-20 4l12 67c-56 38 -97 138 -97 259c0 156 65 274 149 274c13 0 24 -2 35 -7c6 26 11 63 11 63l20 -3zM229 456l-72 -430c7 -11 17 -17 30 -17c32 0 43 26 43 97
v324c0 9 0 18 -1 26zM147 79l71 428c-7 13 -17 17 -31 17c-30 0 -41 -26 -41 -94v-324c0 -11 0 -20 1 -27z" />
    <glyph glyph-name="questiondown" unicode="&#xbf;" horiz-adv-x="350" 
d="M223 359c33 -28 53 -71 53 -113c0 -48 -25 -108 -74 -182l-53 -79c-21 -32 -32 -66 -32 -98c0 -55 33 -95 83 -95c35 0 60 17 68 45c-8 -3 -11 -4 -19 -4c-31 0 -54 29 -54 73c0 45 26 75 62 75c37 0 61 -32 61 -79c0 -73 -56 -130 -129 -130c-87 0 -151 72 -151 169
c0 61 24 114 80 176l39 42c62 70 79 96 79 127c0 20 -9 42 -25 63zM211 541c36 0 58 -28 58 -73s-22 -74 -58 -74s-58 29 -58 74s22 73 58 73z" />
    <glyph glyph-name="exclamdown" unicode="&#xa1;" horiz-adv-x="199" 
d="M102 541c36 0 58 -28 58 -73s-22 -74 -58 -74s-58 29 -58 74s22 73 58 73zM81 282c2 32 7 40 21 40c15 0 19 -8 23 -40l38 -396c2 -23 3 -35 3 -45c0 -42 -25 -69 -64 -69s-64 27 -64 70c0 10 1 21 4 44z" />
    <glyph glyph-name="radical" unicode="&#x221a;" horiz-adv-x="215" 
d="M175 740l8 -13l-74 -127l-71 127l9 13l62 -78z" />
    <glyph glyph-name="florin" unicode="&#x192;" horiz-adv-x="587" 
d="M370 424l-61 -335c-27 -144 -78 -207 -168 -207c-62 0 -103 46 -103 116c0 60 25 102 62 102c28 0 45 -21 45 -55c0 -43 -23 -76 -51 -76c-14 0 -24 6 -30 21c-1 -7 -1 -9 -1 -12c0 -37 23 -67 54 -67c33 0 42 16 58 102l76 411h-91l5 25h91l28 150
c27 145 76 208 166 208c63 0 104 -46 104 -116c0 -60 -25 -102 -62 -102c-27 0 -45 22 -45 55c0 43 22 77 51 77c15 0 24 -7 31 -22c1 7 1 9 1 13c0 37 -25 66 -55 66c-34 0 -42 -16 -59 -102l-41 -227h106l-3 -25h-108z" />
    <glyph glyph-name="guillemotleft" unicode="&#xab;" horiz-adv-x="232" 
d="M86 297l46 -200l-11 -5l-83 205l83 205l11 -4zM154 297l46 -200l-11 -5l-84 205l84 205l11 -4z" />
    <glyph glyph-name="guillemotright" unicode="&#xbb;" horiz-adv-x="232" 
d="M152 297l-47 201l12 4l83 -205l-83 -205l-12 5zM84 297l-46 201l11 4l83 -205l-83 -205l-11 5z" />
    <glyph glyph-name="nbspace" unicode="&#xa0;" horiz-adv-x="557" 
 />
    <glyph glyph-name="Agrave" unicode="&#xc0;" horiz-adv-x="449" 
d="M132 213l-5 -32c-7 -44 -11 -84 -11 -100c0 -38 14 -57 48 -63v-18h-148v18c41 3 50 22 74 150l104 584h84l131 -734h30v-18h-194v18h47l-33 195h-127zM314 965l-60 -134h-27l35 134h52zM194 599l-57 -361h118z" />
    <glyph glyph-name="Atilde" unicode="&#xc3;" horiz-adv-x="449" 
d="M132 213l-5 -32c-7 -44 -11 -84 -11 -100c0 -38 14 -57 48 -63v-18h-148v18c41 3 50 22 74 150l104 584h84l131 -734h30v-18h-194v18h47l-33 195h-127zM325 898c-20 -51 -38 -67 -58 -67c-13 0 -30 9 -50 25c-7 6 -14 14 -21 14s-12 -8 -24 -34l-23 17c19 45 38 63 58 63
c14 0 31 -8 50 -24c8 -8 12 -13 20 -13c7 0 14 9 26 32zM194 599l-57 -361h118z" />
    <glyph glyph-name="Otilde" unicode="&#xd5;" 
d="M218 -11c-98 0 -180 176 -180 387s82 387 180 387s180 -176 180 -387s-82 -387 -180 -387zM314 898c-20 -51 -38 -67 -58 -67c-14 0 -30 9 -51 25c-6 6 -13 14 -20 14c-8 0 -12 -8 -25 -34l-22 17c19 45 38 63 57 63c15 0 32 -8 51 -24c8 -8 12 -13 20 -13
c7 0 13 9 26 32zM277 299v156c0 276 -20 290 -59 290c-38 0 -59 -14 -59 -290v-156c0 -277 21 -291 59 -291c39 0 59 14 59 291z" />
    <glyph glyph-name="OE" unicode="&#x152;" horiz-adv-x="558" 
d="M278 752h235v-230h-18c-2 174 -22 212 -121 212h-11v-339h8c57 0 69 20 69 121v14h18v-292h-18v17c0 101 -11 122 -67 122h-10v-359h14c100 0 133 58 130 237h18v-255h-241c-26 0 -45 -11 -66 -11c-98 0 -180 176 -180 387s82 387 180 387c24 0 37 -11 60 -11zM248 728
c0 14 -19 17 -30 17c-38 0 -59 -14 -59 -290v-156c0 -277 21 -291 59 -291c12 0 30 2 30 16v704z" />
    <glyph glyph-name="oe" unicode="&#x153;" horiz-adv-x="521" 
d="M281 48c-26 -35 -58 -56 -94 -56c-84 0 -149 119 -149 275s65 274 149 274c36 0 69 -20 94 -57c24 36 56 57 90 57c75 0 117 -89 117 -240v-9h-154v-153c0 -97 11 -122 50 -122c48 0 81 67 83 172h21v-9c0 -110 -42 -188 -109 -188c-39 0 -73 20 -98 56zM187 9
c32 0 43 26 43 97v324c0 69 -11 94 -43 94c-30 0 -41 -26 -41 -94v-324c0 -71 11 -97 41 -97zM398 310v109c0 80 -6 105 -31 105c-26 0 -33 -23 -33 -105v-109h64z" />
    <glyph glyph-name="endash" unicode="&#x2013;" horiz-adv-x="360" 
d="M328 282h-290v30h290v-30z" />
    <glyph glyph-name="emdash" unicode="&#x2014;" horiz-adv-x="516" 
d="M484 282h-446v30h446v-30z" />
    <glyph glyph-name="quotedblleft" unicode="&#x201c;" horiz-adv-x="339" 
d="M285 727c-46 -24 -73 -66 -71 -113c8 17 19 23 39 23c33 0 53 -26 53 -69c0 -45 -22 -74 -58 -74c-40 0 -68 41 -68 102c0 73 35 131 96 156zM144 727c-46 -24 -73 -66 -71 -113c8 17 19 23 38 23c34 0 54 -26 54 -69c0 -45 -22 -74 -58 -74c-41 0 -69 41 -69 102
c0 73 36 131 97 156z" />
    <glyph glyph-name="quotedblright" unicode="&#x201d;" horiz-adv-x="339" 
d="M59 519c46 24 73 66 71 113c-8 -17 -19 -24 -38 -24c-34 0 -54 27 -54 70c0 45 23 74 59 74c40 0 68 -42 68 -102c0 -73 -36 -131 -97 -156zM201 519c46 24 73 66 71 113c-8 -17 -19 -24 -39 -24c-33 0 -53 27 -53 70c0 45 22 74 58 74c40 0 68 -42 68 -102
c0 -73 -36 -131 -96 -156z" />
    <glyph glyph-name="quoteleft" unicode="&#x2018;" horiz-adv-x="198" 
d="M144 727c-46 -24 -73 -66 -71 -113c8 17 19 23 38 23c34 0 54 -26 54 -69c0 -45 -22 -74 -58 -74c-41 0 -69 41 -69 102c0 73 36 131 97 156z" />
    <glyph glyph-name="quoteright" unicode="&#x2019;" horiz-adv-x="198" 
d="M59 519c46 24 73 66 71 113c-8 -17 -19 -24 -38 -24c-34 0 -54 27 -54 70c0 45 23 74 59 74c40 0 68 -42 68 -102c0 -73 -36 -131 -97 -156z" />
    <glyph glyph-name="divide" unicode="&#xf7;" horiz-adv-x="294" 
d="M64 -7l-26 7l198 760l26 -8z" />
    <glyph glyph-name="ydieresis" unicode="&#xff;" horiz-adv-x="388" 
d="M42 515h-26v18h171v-18h-35l81 -316l51 208c20 86 11 101 -44 109v17h138v-17c-36 -5 -45 -19 -64 -100l-127 -528c-20 -86 -41 -114 -86 -114c-42 0 -70 32 -70 78c0 39 23 69 52 69s47 -24 47 -64c0 -21 -4 -37 -16 -56c21 8 32 30 43 76l33 138zM302 635
c0 -19 -18 -35 -40 -35c-23 0 -41 16 -41 35s18 34 41 34c22 0 40 -15 40 -34zM205 635c0 -19 -18 -35 -40 -35s-40 16 -40 35s18 34 40 34s40 -15 40 -34z" />
    <glyph glyph-name="Ydieresis" unicode="&#x178;" 
d="M99 0v18h55v319l-107 397h-31v18h184v-18h-35l88 -346l60 238c8 29 14 56 14 66c0 27 -13 39 -42 42v18h136v-18c-41 -3 -47 -15 -78 -126l-75 -277v-313h54v-18h-223zM309 965l-61 -134h-27l35 134h53z" />
    <glyph glyph-name="fraction" unicode="&#x2044;" 
d="M99 0v18h55v319l-107 397h-31v18h184v-18h-35l88 -346l60 238c8 29 14 56 14 66c0 27 -13 39 -42 42v18h136v-18c-41 -3 -47 -15 -78 -126l-75 -277v-313h54v-18h-223zM324 865c0 -19 -18 -34 -40 -34s-40 15 -40 34s18 34 40 34s40 -15 40 -34zM228 865
c0 -19 -18 -34 -41 -34c-22 0 -40 15 -40 34s18 34 40 34c23 0 41 -15 41 -34z" />
    <glyph glyph-name="guilsinglleft" unicode="&#x2039;" horiz-adv-x="165" 
d="M86 297l46 -200l-11 -5l-83 205l83 205l11 -4z" />
    <glyph glyph-name="guilsinglright" unicode="&#x203a;" horiz-adv-x="165" 
d="M84 297l-46 201l11 4l83 -205l-83 -205l-11 5z" />
    <glyph glyph-name="periodcentered" unicode="&#xb7;" horiz-adv-x="158" 
d="M80 -10l-7 -29c35 0 53 -20 53 -54c0 -38 -25 -64 -59 -64c-12 0 -16 1 -29 8v17c9 -5 14 -6 19 -6c20 0 34 12 34 31s-14 33 -34 33c-2 0 -5 0 -11 -1l16 65h18z" />
    <glyph glyph-name="quotesinglbase" unicode="&#x201a;" horiz-adv-x="198" 
d="M45 -99c54 23 87 69 85 120c-8 -17 -19 -23 -38 -23c-34 0 -54 27 -54 69c0 45 23 74 59 74c40 0 68 -41 68 -102c0 -79 -43 -140 -113 -161z" />
    <glyph glyph-name="quotedblbase" unicode="&#x201e;" horiz-adv-x="339" 
d="M45 -99c54 23 87 69 85 120c-8 -17 -19 -23 -38 -23c-34 0 -54 27 -54 69c0 45 23 74 59 74c40 0 68 -41 68 -102c0 -79 -43 -140 -113 -161zM186 -99c54 23 88 69 86 120c-8 -17 -19 -23 -39 -23c-33 0 -53 27 -53 69c0 45 22 74 58 74c40 0 68 -41 68 -102
c0 -79 -42 -140 -113 -161z" />
    <glyph glyph-name="Acircumflex" unicode="&#xc2;" horiz-adv-x="449" 
d="M132 213l-5 -32c-7 -44 -11 -84 -11 -100c0 -38 14 -57 48 -63v-18h-148v18c41 3 50 22 74 150l104 584h84l131 -734h30v-18h-194v18h47l-33 195h-127zM310 850l-14 -19l-67 67l-62 -67l-14 19l77 120zM194 599l-57 -361h118z" />
    <glyph glyph-name="Ecircumflex" unicode="&#xca;" horiz-adv-x="397" 
d="M38 0v18h50v716h-50v18h314v-230h-18c-2 174 -22 212 -121 212h-11v-339h9c56 0 68 20 68 121v14h18v-292h-18v17c0 101 -11 122 -67 122h-10v-359h15c99 0 132 58 130 237h18v-255h-327zM286 850l-13 -19l-68 67l-61 -67l-15 19l78 120z" />
    <glyph glyph-name="Aacute" unicode="&#xc1;" horiz-adv-x="449" 
d="M314 965l-60 -134h-27l35 134h52zM439 0h-194v18h47l-33 195h-127l-5 -32c-7 -44 -11 -84 -11 -100c0 -38 14 -57 48 -63v-18h-148v18c41 3 50 22 74 150l104 584h84l131 -734h30v-18zM255 238l-61 361l-57 -361h118z" />
    <glyph glyph-name="Edieresis" unicode="&#xcb;" horiz-adv-x="397" 
d="M38 0v18h50v716h-50v18h314v-230h-18c-2 174 -22 212 -121 212h-11v-339h9c56 0 68 20 68 121v14h18v-292h-18v17c0 101 -11 122 -67 122h-10v-359h15c99 0 132 58 130 237h18v-255h-327zM303 865c0 -19 -18 -34 -40 -34c-23 0 -41 15 -41 34s18 34 41 34
c22 0 40 -15 40 -34zM207 865c0 -19 -18 -34 -41 -34c-22 0 -40 15 -40 34s18 34 40 34c23 0 41 -15 41 -34z" />
    <glyph glyph-name="Egrave" unicode="&#xc8;" horiz-adv-x="397" 
d="M248 831h-27l-61 134h53zM38 0v18h50v716h-50v18h314v-230h-18c-2 174 -22 212 -121 212h-11v-339h9c56 0 68 20 68 121v14h18v-292h-18v17c0 101 -11 122 -67 122h-10v-359h15c99 0 132 58 130 237h18v-255h-327z" />
    <glyph glyph-name="Iacute" unicode="&#xcd;" horiz-adv-x="283" 
d="M38 0v18h50v716h-50v18h212v-18h-48v-716h48v-18h-212zM226 965l-61 -134h-27l35 134h53z" />
    <glyph glyph-name="Icircumflex" unicode="&#xce;" horiz-adv-x="283" 
d="M38 0v18h50v716h-50v18h212v-18h-48v-716h48v-18h-212zM223 850l-13 -19l-67 67l-62 -67l-15 19l78 120z" />
    <glyph glyph-name="Idieresis" unicode="&#xcf;" horiz-adv-x="283" 
d="M38 0v18h50v716h-50v18h212v-18h-48v-716h48v-18h-212zM236 865c0 -19 -18 -34 -41 -34c-22 0 -40 15 -40 34s18 34 40 34c23 0 41 -15 41 -34zM139 865c0 -19 -18 -34 -40 -34c-23 0 -41 15 -41 34s18 34 41 34c22 0 40 -15 40 -34z" />
    <glyph glyph-name="Igrave" unicode="&#xcc;" horiz-adv-x="283" 
d="M38 0v18h50v716h-50v18h212v-18h-48v-716h48v-18h-212zM169 831h-26l-61 134h53z" />
    <glyph glyph-name="Oacute" unicode="&#xd3;" 
d="M218 -11c-98 0 -180 176 -180 387s82 387 180 387s180 -176 180 -387s-82 -387 -180 -387zM296 965l-60 -134h-27l35 134h52zM277 299v156c0 276 -20 290 -59 290c-38 0 -59 -14 -59 -290v-156c0 -277 21 -291 59 -291c39 0 59 14 59 291z" />
    <glyph glyph-name="Ocircumflex" unicode="&#xd4;" 
d="M218 -11c-98 0 -180 176 -180 387s82 387 180 387s180 -176 180 -387s-82 -387 -180 -387zM301 850l-14 -19l-67 67l-62 -67l-14 19l77 120zM277 299v156c0 276 -20 290 -59 290c-38 0 -59 -14 -59 -290v-156c0 -277 21 -291 59 -291c39 0 59 14 59 291z" />
    <glyph glyph-name="Ograve" unicode="&#xd2;" 
d="M240 831h-27l-60 134h52zM398 376c0 -211 -82 -387 -180 -387s-180 176 -180 387s82 387 180 387s180 -176 180 -387zM277 299v156c0 276 -20 290 -59 290c-38 0 -59 -14 -59 -290v-156c0 -277 21 -291 59 -291c39 0 59 14 59 291z" />
    <glyph glyph-name="Uacute" unicode="&#xda;" horiz-adv-x="467" 
d="M354 965l-61 -134h-27l35 134h53zM434 734c-41 -6 -47 -18 -47 -104v-437c0 -156 -33 -204 -140 -204c-113 0 -159 60 -159 204v541h-50v18h200v-18h-36v-587c0 -88 19 -119 74 -119c64 0 81 35 81 167v435c0 87 -5 96 -48 104v18h125v-18z" />
    <glyph glyph-name="Ucircumflex" unicode="&#xdb;" horiz-adv-x="467" 
d="M434 734c-41 -6 -47 -18 -47 -104v-437c0 -156 -33 -204 -140 -204c-113 0 -159 60 -159 204v541h-50v18h200v-18h-36v-587c0 -88 19 -119 74 -119c64 0 81 35 81 167v435c0 87 -5 96 -48 104v18h125v-18zM341 850l-13 -19l-68 67l-61 -67l-15 19l78 120z" />
    <glyph glyph-name="Ugrave" unicode="&#xd9;" horiz-adv-x="467" 
d="M290 831h-27l-61 134h53zM434 734c-41 -6 -47 -18 -47 -104v-437c0 -156 -33 -204 -140 -204c-113 0 -159 60 -159 204v541h-50v18h200v-18h-36v-587c0 -88 19 -119 74 -119c64 0 81 35 81 167v435c0 87 -5 96 -48 104v18h125v-18z" />
    <glyph glyph-name="dotlessi" unicode="&#x131;" horiz-adv-x="246" 
d="M38 0v18h36v497h-36v18h139v-515h36v-18h-175z" />
    <glyph glyph-name="circumflex" unicode="&#x2c6;" horiz-adv-x="228" 
d="M195 850l-13 -19l-68 67l-61 -67l-15 19l78 120z" />
    <glyph glyph-name="tilde" unicode="&#x2dc;" horiz-adv-x="246" 
d="M214 898c-20 -51 -38 -67 -58 -67c-13 0 -30 9 -51 25c-6 6 -13 14 -20 14c-8 0 -12 -8 -24 -34l-23 17c19 45 38 63 57 63c15 0 32 -8 51 -24c8 -8 12 -13 20 -13c7 0 14 9 26 32z" />
    <glyph glyph-name="dotaccent" unicode="&#x2d9;" horiz-adv-x="187" 
d="M97 605c-36 0 -59 28 -59 73s23 74 59 74c35 0 58 -29 58 -74s-23 -73 -58 -73z" />
    <glyph glyph-name="ring" unicode="&#x2da;" horiz-adv-x="195" 
d="M101 600c-35 0 -63 29 -63 63c0 35 28 63 62 63c36 0 63 -28 63 -63c0 -34 -28 -63 -62 -63zM100 700c-20 0 -36 -15 -36 -37c0 -20 16 -37 37 -37c20 0 36 17 36 37c0 22 -16 37 -37 37z" />
    </font>
</defs>
</svg>
